<svg id="Layer_1" data-name="Layer 1" xmlns="http://www.w3.org/2000/svg" viewBox="0 0 67.03 58.13"><defs><style>.cls-1{fill:#ffe9df;}</style></defs><path class="cls-1" d="M77.6,32,24.88,23.74,23.1,19.31a1.1,1.1,0,0,0-.71-.64L12.86,16a1.08,1.08,0,0,0-.59,2.08l9,2.55,1.79,4.47a0,0,0,0,1,0,0L34,52.18c-2.45,2.12-3.61,4.32-3.42,6.55.32,3.74,4.33,6,4.5,6.05a1.06,1.06,0,0,0,.52.13H73.88a1.08,1.08,0,0,0,0-2.16h-38c-.73-.45-3-2-3.17-4.22-.13-1.58.88-3.25,3-5l39.28-2a1.1,1.1,0,0,0,1-.93L78.5,33.18A1.08,1.08,0,0,0,77.6,32ZM74.26,47.35,71.15,39.6h4.23Zm-9,2.53L61.17,39.6h7.65l4,9.89Zm-9.78.5L51.19,39.6h7.65L63,50Zm-9.78.5L41.21,39.6h7.65l4.38,10.89Zm-9.77.5L31.24,39.6h7.64L43.46,51ZM44.61,29,48,37.44H40.35l-3.9-9.71Zm10.64,1.66L58,37.44H50.33l-3.24-8ZM65.9,32.32l2,5.12H60.3l-2.56-6.39Zm9.8,5.12H70.28l-1.9-4.73,7.83,1.22ZM34,27.34,38,37.44H30.37L25.81,26.07Z" transform="translate(-11.49 -15.94)"/><path class="cls-1" d="M67.39,65.14a4.46,4.46,0,1,0,4.46,4.46A4.47,4.47,0,0,0,67.39,65.14Zm0,6.76a2.3,2.3,0,1,1,2.3-2.3A2.3,2.3,0,0,1,67.39,71.9Z" transform="translate(-11.49 -15.94)"/><path class="cls-1" d="M34.64,65.14A4.46,4.46,0,1,0,39.1,69.6,4.47,4.47,0,0,0,34.64,65.14Zm0,6.76a2.3,2.3,0,1,1,2.3-2.3A2.3,2.3,0,0,1,34.64,71.9Z" transform="translate(-11.49 -15.94)"/></svg>