<svg id="Layer_1" data-name="Layer 1" xmlns="http://www.w3.org/2000/svg" viewBox="0 0 1543.36 1032.24"><defs><style>.cls-1{fill:#2d77b6;}.cls-2{fill:#fff;}.cls-3{fill:#6fa763;}.cls-4{fill:#b5433c;}.cls-5{fill:#58443b;}.cls-6{fill:#e28a49;}.cls-7{fill:#f8e672;}</style></defs><circle class="cls-1" cx="795.16" cy="299.15" r="51.67"/><path class="cls-2" d="M711.1,241l3.55,8.24,4.41-1.89,8,18.48-4.4,1.9,3.41,7.92,16.24-7-3.38-7.84-4.24,1.83-6.55-15.21s3.23-5.28,5.93-5.4,4.36,4.39,4.36,4.39l8.68,20.17,12-5.17-3.42-7.93-4.16,1.8L744.89,240s2.23-4.28,5-4.9,4,1.4,4.68,2.72,9.31,21.61,9.31,21.61L776,254.17l-3.41-7.92L768.47,248l-6.72-15.61s-3.1-8.72-8.56-8.64-9.56,2.69-12.57,9.59c0,0-4.51-3.64-9.63-1.21a11.79,11.79,0,0,0-6.33,6.66l-1.32-3.06Z" transform="translate(51.69 51.69)"/><circle class="cls-3" cx="951.7" cy="182.75" r="51.67"/><path class="cls-2" d="M867.64,124.62l3.55,8.25,4.4-1.9,8,18.48-4.41,1.9,3.42,7.92,16.24-7-3.38-7.85-4.24,1.83-6.55-15.2s3.23-5.28,5.93-5.4,4.36,4.38,4.36,4.38l8.68,20.17,12-5.17-3.42-7.92L908,138.91l-6.62-15.37s2.24-4.28,5-4.9,4,1.4,4.68,2.72S920.42,143,920.42,143l12.08-5.21-3.41-7.92L925,131.6,918.29,116s-3.1-8.73-8.57-8.65-9.56,2.7-12.56,9.59c0,0-4.51-3.63-9.63-1.2a11.83,11.83,0,0,0-6.34,6.65l-1.31-3.06Z" transform="translate(51.69 51.69)"/><circle class="cls-3" cx="1294.16" cy="350.83" r="51.67"/><path class="cls-2" d="M1217.74,277.29l-1.08,8.91,4.76.58-2.42,20-4.76-.58-1,8.56,17.56,2.13,1-8.48-4.59-.55,2-16.44s5.44-2.93,7.84-1.68,1.55,6,1.55,6L1236,317.5l13,1.57,1-8.56-4.49-.55,2-16.6s4.09-2.58,6.79-1.72,2.77,3.23,2.68,4.71-2.84,23.35-2.84,23.35l13.07,1.59,1-8.57-4.41-.53,2-16.87s1.72-9.09-3-11.78-9.62-2.48-15.68,2c0,0-2.07-5.4-7.72-5.88a11.8,11.8,0,0,0-8.82,2.56l.4-3.31Z" transform="translate(51.69 51.69)"/><circle class="cls-3" cx="1033.2" cy="834.99" r="51.67"/><path class="cls-2" d="M949,777.5l3.71,8.17,4.37-2L965.42,802l-4.37,2,3.57,7.85,16.1-7.31-3.53-7.78-4.2,1.91-6.84-15.07s3.12-5.34,5.82-5.52,4.44,4.3,4.44,4.3l9.07,20,11.9-5.41-3.56-7.85L989.69,791l-6.91-15.23s2.15-4.32,4.9-5,4.05,1.32,4.74,2.63,9.72,21.42,9.72,21.42l12-5.44-3.56-7.85-4,1.84-7-15.47s-3.26-8.67-8.73-8.48-9.51,2.88-12.38,9.83c0,0-4.57-3.54-9.65-1a11.8,11.8,0,0,0-6.2,6.77l-1.38-3Z" transform="translate(51.69 51.69)"/><circle class="cls-3" cx="305.42" cy="501.69" r="51.67"/><path class="cls-2" d="M234.53,423.16l-3.05,8.44,4.5,1.63-6.84,18.92-4.51-1.63-2.93,8.12,16.63,6,2.91-8-4.35-1.57,5.63-15.57s6-1.64,8,.12.18,6.18.18,6.18l-7.47,20.65,12.29,4.44,2.93-8.11-4.26-1.54,5.69-15.73s4.56-1.6,7-.16,2,3.78,1.55,5.2-8,22.12-8,22.12l12.37,4.47,2.93-8.11-4.18-1.51,5.78-16s3.72-8.47-.33-12.16-8.81-4.58-15.72-1.61c0,0-.8-5.73-6.2-7.46a11.84,11.84,0,0,0-9.17.51l1.13-3.13Z" transform="translate(51.69 51.69)"/><circle class="cls-3" cx="454.87" cy="51.69" r="51.67"/><path class="cls-2" d="M374.2-15.79l.93,8.93,4.77-.5,2.09,20-4.76.5.89,8.58,17.59-1.84-.88-8.5-4.6.48L388.51-4.58s4.66-4.08,7.27-3.39,2.85,5.49,2.85,5.49l2.28,21.83,13-1.35L413,9.42l-4.51.47L406.77-6.75s3.41-3.42,6.24-3.19,3.42,2.53,3.66,4,2.44,23.39,2.44,23.39l13.09-1.36-.9-8.58L426.88,8l-1.77-16.9s-.35-9.25-5.59-10.8-9.93-.28-14.86,5.4c0,0-3.21-4.81-8.82-4a11.81,11.81,0,0,0-8,4.46l-.34-3.32Z" transform="translate(51.69 51.69)"/><circle class="cls-4" cx="427.68" cy="350.83" r="51.67"/><path class="cls-2" d="M346.7,284l1.11,8.9,4.76-.59,2.51,20-4.76.59,1.08,8.56,17.54-2.2-1.06-8.47-4.58.57-2.06-16.43s4.57-4.17,7.19-3.53,3,5.42,3,5.42l2.73,21.79,13-1.63L386,308.35l-4.49.56-2.08-16.59s3.33-3.5,6.16-3.33,3.47,2.47,3.75,3.93,2.93,23.34,2.93,23.34l13-1.64-1.07-8.56-4.41.55-2.12-16.86s-.55-9.23-5.82-10.68-9.93-.07-14.74,5.71c0,0-3.32-4.74-8.91-3.83a11.84,11.84,0,0,0-7.94,4.63l-.41-3.31Z" transform="translate(51.69 51.69)"/><circle class="cls-4" cx="103.37" cy="531.36" r="51.67"/><path class="cls-2" d="M28.11,456.58l-1.53,8.84,4.72.82-3.46,19.83-4.72-.82-1.48,8.49,17.43,3,1.46-8.42L36,487.57l2.84-16.31s5.59-2.65,7.92-1.27S48,476,48,476l-3.76,21.63,12.87,2.25,1.48-8.5-4.46-.78L57,474.16s4.21-2.36,6.87-1.37,2.6,3.37,2.43,4.85-4,23.17-4,23.17l13,2.26,1.48-8.5-4.38-.76,2.91-16.74s2.19-9-2.43-11.92-9.48-3-15.77,1.15c0,0-1.78-5.51-7.4-6.28a11.8,11.8,0,0,0-8.94,2.1l.57-3.28Z" transform="translate(51.69 51.69)"/><circle class="cls-4" cx="1459.79" cy="186.25" r="51.67"/><path class="cls-2" d="M1375.83,141.48l6.53,6.16,3.29-3.48L1400.28,158l-3.29,3.49,6.28,5.92,12.14-12.86-6.21-5.86L1406,152l-12-11.36s.87-6.13,3.3-7.31,5.74,2.3,5.74,2.3l16,15.08,9-9.51-6.28-5.92-3.11,3.3-12.16-11.49s.35-4.82,2.65-6.48,4.24-.31,5.38.64,17.11,16.15,17.11,16.15l9-9.57-6.28-5.92-3,3.23-12.35-11.66s-6.3-6.78-11.29-4.54-7.71,6.26-7.74,13.78c0,0-5.57-1.55-9.31,2.71a11.8,11.8,0,0,0-3.18,8.62l-2.42-2.29Z" transform="translate(51.69 51.69)"/><circle class="cls-4" cx="650.61" cy="904.03" r="51.67"/><path class="cls-2" d="M582,824l-3.73,8.17,4.36,2-8.37,18.3-4.36-2-3.58,7.85,16.09,7.35,3.54-7.77-4.2-1.92,6.89-15s6.08-1.15,8,.77-.33,6.17-.33,6.17l-9.13,20L599,873.29l3.58-7.84-4.12-1.89,7-15.21s4.68-1.22,7,.42,1.66,3.92,1.12,5.3-9.78,21.4-9.78,21.4l12,5.46,3.58-7.84-4-1.85,7.06-15.45s4.4-8.15.67-12.15-8.41-5.28-15.54-2.89c0,0-.33-5.77-5.57-7.94a11.77,11.77,0,0,0-9.18-.23l1.38-3Z" transform="translate(51.69 51.69)"/><circle class="cls-5" cx="624.42" cy="209.94" r="51.67"/><path class="cls-2" d="M540.38,164.79l6.46,6.24,3.33-3.44,14.47,14L561.31,185l6.2,6L579.8,178.3l-6.14-5.94-3.21,3.32-11.9-11.5s.94-6.12,3.39-7.27,5.71,2.37,5.71,2.37l15.79,15.26,9.08-9.4-6.2-6-3.15,3.26-12-11.62s.41-4.82,2.72-6.46,4.25-.26,5.38.71,16.91,16.35,16.91,16.35l9.14-9.46-6.2-6L596,149.12l-12.21-11.81s-6.22-6.85-11.24-4.67-7.78,6.17-7.9,13.69c0,0-5.55-1.62-9.34,2.6a11.79,11.79,0,0,0-3.28,8.58l-2.4-2.32Z" transform="translate(51.69 51.69)"/><circle class="cls-5" cx="1084.87" cy="331.81" r="51.67"/><path class="cls-2" d="M1023.46,248.59l-5.56,7,3.76,3-12.48,15.79-3.76-3-5.35,6.77,13.88,11,5.29-6.7-3.62-2.86,10.26-13s6.18.33,7.57,2.65-1.79,5.92-1.79,5.92l-13.61,17.23,10.25,8.1,5.35-6.77-3.55-2.81,10.37-13.12s4.83-.07,6.69,2.07.68,4.2-.17,5.41-14.59,18.46-14.59,18.46l10.33,8.16,5.34-6.77-3.48-2.75,10.53-13.33s6.21-6.87,3.54-11.65-6.91-7.13-14.41-6.5c0,0,1.06-5.69-3.51-9a11.82,11.82,0,0,0-8.87-2.41l2.07-2.61Z" transform="translate(51.69 51.69)"/><circle class="cls-5" cx="1214.98" cy="755.72" r="51.67"/><path class="cls-2" d="M1134.77,687.44l.68,8.94,4.78-.36,1.53,20.07-4.78.36.66,8.6,17.63-1.34-.65-8.51-4.6.35L1148.76,699s4.77-3.95,7.36-3.18,2.69,5.56,2.69,5.56l1.67,21.89,13-1-.66-8.6-4.52.34-1.27-16.68s3.5-3.32,6.32-3,3.35,2.63,3.55,4.1,1.79,23.46,1.79,23.46l13.12-1-.66-8.6-4.43.34-1.29-16.94s-.1-9.26-5.29-11-9.92-.55-15,5c0,0-3.08-4.9-8.72-4.26a11.79,11.79,0,0,0-8.15,4.23l-.25-3.32Z" transform="translate(51.69 51.69)"/><circle class="cls-5" cx="376.01" cy="980.57" r="51.67"/><path class="cls-2" d="M295.8,912.29l.68,8.94,4.78-.36,1.53,20.07-4.78.36.65,8.6,17.64-1.34-.65-8.52-4.6.36-1.26-16.51s4.76-3.95,7.36-3.18,2.69,5.56,2.69,5.56l1.67,21.89,13-1-.65-8.6-4.52.34-1.27-16.68s3.5-3.32,6.32-3,3.35,2.63,3.55,4.1,1.79,23.46,1.79,23.46l13.12-1-.66-8.6-4.43.34-1.29-16.94s-.1-9.26-5.3-11-9.91-.55-15,5c0,0-3.09-4.9-8.72-4.26a11.79,11.79,0,0,0-8.15,4.23l-.25-3.32Z" transform="translate(51.69 51.69)"/><circle class="cls-5" cx="51.69" cy="859.08" r="51.67"/><path class="cls-2" d="M-22.56,783.3l-1.92,8.77,4.68,1-4.29,19.66-4.69-1-1.84,8.43,17.28,3.77,1.83-8.34-4.52-1,3.54-16.18s5.7-2.41,8-.93,1,6.1,1,6.1l-4.69,21.45,12.77,2.79,1.84-8.43-4.43-1L5.52,802.1s4.32-2.18,6.93-1.07,2.45,3.48,2.22,4.94-5,23-5,23l12.86,2.81,1.84-8.43-4.34-1,3.63-16.6s2.56-8.89-1.93-12-9.34-3.38-15.8.47c0,0-1.54-5.58-7.12-6.59a11.82,11.82,0,0,0-9,1.72l.71-3.26Z" transform="translate(51.69 51.69)"/><circle class="cls-6" cx="463.55" cy="768.55" r="51.67"/><path class="cls-2" d="M382,702.84l1.47,8.85,4.73-.78,3.29,19.85-4.73.79,1.41,8.51,17.45-2.89-1.4-8.43-4.55.76L397,713.17s4.4-4.35,7.05-3.82,3.18,5.3,3.18,5.3l3.59,21.66,12.89-2.13-1.41-8.51-4.47.74L415,709.9s3.2-3.62,6-3.56,3.56,2.33,3.89,3.77,3.85,23.21,3.85,23.21l13-2.15-1.41-8.51-4.39.73-2.78-16.77s-.9-9.21-6.23-10.44-9.93.32-14.5,6.29c0,0-3.5-4.61-9.06-3.48a11.83,11.83,0,0,0-7.75,4.94l-.54-3.29Z" transform="translate(51.69 51.69)"/><circle class="cls-6" cx="1295.49" cy="947.81" r="51.67"/><path class="cls-2" d="M1211.46,902.65l6.45,6.24,3.33-3.44,14.47,14-3.33,3.44,6.2,6,12.29-12.72-6.14-5.93-3.2,3.32L1229.62,902s1-6.12,3.39-7.27,5.71,2.37,5.71,2.37l15.79,15.26,9.08-9.39-6.2-6-3.15,3.26-12-11.63s.42-4.81,2.73-6.45,4.25-.26,5.37.71,16.92,16.35,16.92,16.35l9.14-9.46-6.2-6-3.09,3.19-12.21-11.81s-6.22-6.86-11.24-4.68-7.78,6.17-7.9,13.69c0,0-5.56-1.61-9.34,2.6a11.83,11.83,0,0,0-3.29,8.58l-2.39-2.32Z" transform="translate(51.69 51.69)"/><circle class="cls-6" cx="1302.72" cy="563.06" r="51.67"/><path class="cls-2" d="M1241.84,479.67l-5.69,6.95,3.71,3-12.74,15.58-3.71-3-5.46,6.68,13.69,11.2,5.41-6.61-3.57-2.93L1244,497.73s6.18.43,7.53,2.77-1.89,5.89-1.89,5.89l-13.9,17,10.12,8.27,5.46-6.68-3.51-2.87,10.59-12.95s4.83,0,6.66,2.18.61,4.22-.26,5.42S1249.86,535,1249.86,535L1260,543.3l5.46-6.68-3.44-2.81,10.76-13.16s6.32-6.76,3.73-11.58-6.8-7.24-14.3-6.74c0,0,1.15-5.67-3.37-9.09a11.78,11.78,0,0,0-8.82-2.56l2.11-2.58Z" transform="translate(51.69 51.69)"/><circle class="cls-6" cx="1217.96" cy="104.13" r="51.67"/><path class="cls-2" d="M1143.45,28.6l-1.82,8.79,4.69,1-4.08,19.71-4.69-1-1.75,8.44,17.32,3.59,1.73-8.36-4.52-.94,3.36-16.21s5.67-2.47,8-1,1,6.09,1,6.09l-4.45,21.5,12.8,2.65,1.75-8.45-4.44-.92,3.39-16.38s4.29-2.22,6.91-1.15,2.49,3.46,2.28,4.92-4.77,23-4.77,23L1189,76.57l1.75-8.45-4.35-.9,3.44-16.64s2.47-8.92-2.05-12-9.38-3.28-15.8.65c0,0-1.6-5.56-7.19-6.51a11.79,11.79,0,0,0-9,1.82l.68-3.27Z" transform="translate(51.69 51.69)"/><circle class="cls-6" cx="305.42" cy="183.9" r="51.67"/><path class="cls-2" d="M221.21,126.6l3.76,8.15,4.35-2L237.75,151l-4.35,2,3.61,7.83,16.06-7.41-3.58-7.75-4.19,1.93-6.93-15s3.09-5.36,5.78-5.55,4.47,4.27,4.47,4.27l9.2,19.94,11.87-5.47L266.07,138l-4.11,1.9-7-15.19s2.12-4.34,4.88-5,4.05,1.3,4.75,2.61,9.85,21.36,9.85,21.36l11.95-5.51-3.61-7.84-4,1.86-7.12-15.42s-3.31-8.65-8.78-8.43-9.48,2.94-12.32,9.91c0,0-4.59-3.52-9.65-1A11.83,11.83,0,0,0,234.7,124l-1.4-3Z" transform="translate(51.69 51.69)"/><circle class="cls-7" cx="142.62" cy="331.81" r="51.67"/><path class="cls-2" d="M63.75,261.41v9h4.79v20.12H63.75v8.63H81.44V290.6H76.82V274.05s5.06-3.58,7.58-2.62,2.27,5.75,2.27,5.75v22H99.74v-8.63H95.21V273.78s3.74-3,6.53-2.52,3.14,2.87,3.22,4.35,0,23.53,0,23.53h13.16v-8.63h-4.44v-17s.61-9.23-4.45-11.32S99.39,260.89,93.9,266c0,0-2.7-5.12-8.36-4.91a11.81,11.81,0,0,0-8.46,3.6v-3.33Z" transform="translate(51.69 51.69)"/><circle class="cls-7" cx="286.39" cy="871.9" r="51.67"/><path class="cls-2" d="M201.86,817l4.34,7.85,4.19-2.31,9.73,17.62-4.2,2.31,4.17,7.56,15.49-8.55L231.45,834l-4,2.24-8-14.5s2.7-5.57,5.37-6,4.76,3.94,4.76,3.94l10.61,19.22,11.45-6.31-4.17-7.55-4,2.19-8.08-14.65s1.8-4.48,4.5-5.37,4.13,1,4.93,2.26,11.36,20.59,11.36,20.59l11.52-6.35-4.17-7.56-3.89,2.15-8.21-14.87s-3.92-8.39-9.36-7.77-9.25,3.61-11.57,10.76c0,0-4.84-3.17-9.7-.26a11.83,11.83,0,0,0-5.66,7.24l-1.61-2.92Z" transform="translate(51.69 51.69)"/><circle class="cls-7" cx="819.66" cy="755.72" r="51.67"/><path class="cls-2" d="M738.67,688.85l1.12,8.9,4.75-.59,2.51,20-4.75.59,1.07,8.56,17.55-2.2-1.06-8.47-4.59.57-2.06-16.42s4.57-4.18,7.2-3.54,3,5.42,3,5.42l2.74,21.79,13-1.63L778,713.24l-4.5.56-2.08-16.6s3.34-3.49,6.17-3.32,3.47,2.46,3.74,3.92,2.93,23.35,2.93,23.35l13.06-1.64L796.24,711l-4.41.55-2.12-16.86s-.54-9.24-5.82-10.68-9.93-.07-14.73,5.71c0,0-3.32-4.74-8.92-3.83a11.8,11.8,0,0,0-7.93,4.63l-.42-3.31Z" transform="translate(51.69 51.69)"/><circle class="cls-7" cx="1491.67" cy="518.88" r="51.67"/><path class="cls-2" d="M1420.36,440.65l-2.91,8.49,4.53,1.56-6.54,19-4.54-1.56-2.8,8.16,16.73,5.75,2.77-8.07-4.36-1.51,5.38-15.65s5.94-1.74,8,0,.28,6.18.28,6.18l-7.14,20.76,12.36,4.25,2.8-8.16-4.28-1.47,5.44-15.82s4.53-1.67,7-.27,2,3.74,1.63,5.17-7.65,22.25-7.65,22.25l12.45,4.27,2.8-8.15-4.2-1.45,5.52-16.07s3.58-8.53-.52-12.15-8.89-4.44-15.75-1.36c0,0-.89-5.72-6.31-7.36a11.82,11.82,0,0,0-9.17.66L1433,445Z" transform="translate(51.69 51.69)"/><circle class="cls-7" cx="771.69" cy="51.69" r="51.67"/><path class="cls-2" d="M688.27-9.08l2.86,8.51,4.54-1.53L702.08,17l-4.54,1.52,2.75,8.18,16.76-5.63L714.33,13,710,14.42,704.68-1.27s3.66-5,6.36-4.89,4,4.73,4,4.73l7,20.81,12.39-4.16L731.65,7l-4.29,1.45L722-7.37s2.58-4.08,5.39-4.48,3.89,1.73,4.44,3.11,7.49,22.3,7.49,22.3l12.47-4.19-2.74-8.18L744.86,2.6l-5.41-16.1s-2.36-8.95-7.82-9.32-9.74,1.89-13.31,8.51c0,0-4.19-4-9.49-2A11.81,11.81,0,0,0,702-10.19l-1.06-3.16Z" transform="translate(51.69 51.69)"/><circle class="cls-1" cx="220.78" cy="716.65" r="51.67"/><path class="cls-2" d="M138.45,652.7l2,8.76,4.68-1.06L149.55,680l-4.68,1.06,1.91,8.41L164,685.6l-1.89-8.33-4.5,1L154,662.14s4.14-4.6,6.81-4.22,3.48,5.11,3.48,5.11l4.85,21.41,12.74-2.88-1.9-8.41-4.42,1-3.69-16.32s3-3.8,5.82-3.91,3.69,2.12,4.1,3.54S187,680.41,187,680.41l12.84-2.91-1.91-8.41-4.33,1-3.75-16.57s-1.44-9.14-6.83-10.07-9.9.9-14.12,7.13c0,0-3.76-4.4-9.24-2.95a11.77,11.77,0,0,0-7.44,5.38l-.74-3.25Z" transform="translate(51.69 51.69)"/><circle class="cls-1" cx="117.41" cy="131.06" r="51.67"/><path class="cls-2" d="M46.65,52.44l-3.09,8.42,4.49,1.65-6.93,18.9-4.5-1.65-3,8.1L50.26,94l2.94-8-4.34-1.59L54.57,68.8s6-1.61,8,.15.15,6.18.15,6.18L55.17,95.75l12.27,4.5,3-8.1-4.26-1.56,5.77-15.71s4.56-1.57,7-.12,2,3.78,1.53,5.2-8.1,22.09-8.1,22.09l12.35,4.53,3-8.1L83.5,97l5.85-16s3.75-8.46-.27-12.17-8.8-4.61-15.72-1.68c0,0-.78-5.73-6.16-7.49a11.84,11.84,0,0,0-9.18.48L59.17,57Z" transform="translate(51.69 51.69)"/><circle class="cls-1" cx="1440" cy="755.72" r="51.67"/><path class="cls-2" d="M1359.64,687.69l.76,8.94,4.77-.4,1.71,20-4.77.41.73,8.59,17.62-1.5-.72-8.51-4.6.39-1.41-16.49s4.73-4,7.33-3.25,2.75,5.54,2.75,5.54l1.86,21.88,13-1.11-.73-8.6-4.51.39L1392,697.35s3.47-3.36,6.29-3.07,3.37,2.59,3.59,4.06,2,23.44,2,23.44l13.11-1.11-.73-8.6-4.43.38-1.44-16.93s-.18-9.26-5.39-10.91-9.92-.47-15,5.12c0,0-3.13-4.87-8.76-4.18a11.83,11.83,0,0,0-8.11,4.31l-.28-3.32Z" transform="translate(51.69 51.69)"/><circle class="cls-1" cx="923" cy="978.96" r="51.67"/><path class="cls-2" d="M842.64,910.93l.76,8.94,4.77-.4,1.71,20-4.77.41.73,8.59,17.62-1.5-.72-8.51-4.6.39-1.41-16.49s4.73-4,7.33-3.25,2.75,5.54,2.75,5.54l1.86,21.88,13-1.11-.73-8.6-4.51.39L875,920.59s3.47-3.36,6.29-3.07,3.37,2.59,3.59,4.06,2,23.44,2,23.44L900,943.91l-.73-8.6-4.43.38-1.44-16.93s-.18-9.25-5.39-10.91-9.92-.47-14.95,5.12c0,0-3.13-4.87-8.76-4.18a11.83,11.83,0,0,0-8.11,4.31l-.28-3.32Z" transform="translate(51.69 51.69)"/></svg>