<?xml version="1.0" encoding="utf-8"?>
<!-- Generator: Adobe Illustrator 24.1.3, SVG Export Plug-In . SVG Version: 6.00 Build 0)  -->
<svg version="1.1" id="Layer_4" xmlns="http://www.w3.org/2000/svg" xmlns:xlink="http://www.w3.org/1999/xlink" x="0px" y="0px"
	 viewBox="0 0 1440 229.8" style="enable-background:new 0 0 1440 229.8;" xml:space="preserve">
<style type="text/css">
	.st0{fill:#412013;}
</style>
<path class="st0" d="M0,0v168.3c3.5-2.8,2-9.7,3.9-13.6c2.6-5.4,14.3-9.1,19.5,0s-5.1,34.4,4.3,40.1s21.8,3.9,22.6-6.8
	s-9.2-36.1,0-44.4s26-4.4,29.8,12s-9.7,49.4,0,58.3s32.3,3.9,32.3-11.3s-9.7-35.5-3.2-44.6s16.6-8.5,19.8-2.6s-5.2,17.7,11.7,19.2
	s16-18.5,14.9-25.7s6.6-15.7,15.2-13.1s4.6,14.1,19.2,15s15.2-12.8,15.2-16.8s5.4-13.7,19.8-8.9s0.3,27.2,16,31.6
	s18.3-18.9,34.1-11.1s2.3,44.6,12.3,50.7s22.3,2.8,24-2.8s-4.6-31.6,5.4-36.4s6.9,8.9,20.6,10.2s8-19.6,19.5-24.4s15.4,9.6,25.2,9.4
	c15.7-0.4,5.8-20,25.2-20.9c15.9-0.7,2.2,59.5,5.8,67.5c4,8.9,21.9,12.9,31.1,2.2s-8.8-44.2,8.9-51s10.7,23.5,28.1,25.9
	s12.3-23.7,26-29.8s21.2,10.9,27.5,10.9s14.4-6.4,19.1-3.4c15.3,9.6,8.2,24.8,24.6,24.9c17.8,0.1,8.7-45.8,36.5-44.1
	s7.2,57.8,10.8,67c5,12.7,32.9,17.7,37.2-0.6s-17.4-53.9,5.4-60.3c18-5.1,10.9,23.1,22.6,25.7s10-14.8,24-10.2s9.7,14.2,18.3,15.1
	s12.9-13.8,24.9-8.3s-1.4,30.9,16.3,35s24.9-9.1,27.5-18.1s-6.3-45.5,15.5-44.2s8.3,33.5,34.9,34.6s9.7-33.3,28.6-28.7
	s5.4,48.3,16.3,54.4s25.2,1.3,26.6-8.7s0-27.9,22.9-23.3s-2.6,52.2,16.6,62.5s30-4.6,30.9-15.5s-14.6-54,8.6-58.8
	s8.7,34.7,28.8,35.8c17.3,1,4.7-27.4,23.3-28.8c19.8-1.6,12,15.4,32.3,15.7c17.9,0.2,10.9-40.3,41.5-37.9s-2,47.2,23.5,53.8
	s24.9-12.2,23.8-16.8s-7.2-26.6,9.4-25.7s5.1,19.1,18.9,19.6c12.3,0.4,3.3-14.2,15.5-17.4c14.3-3.8,11.3,6.4,24,5.7
	c12.2-0.7,4.7-27.2,22.6-27.2c18.9,0.1,14,33.3,13.2,38.8s-9,22.4,1.9,30.3s27.8,3.9,29.8-11.1s-12.6-39.8,11.2-47.2
	s10.3,24.6,28.6,27s5.2-26.1,27.2-23.5s14.1,33.4,14.3,40.5c0.2,8.9,2.4,22.3,17.9,22.3c16.3,0,16.3-16.2,15.2-32.9
	c-0.4-5.9,3.1-16.4,11.2-13.6c2.4,0.8,3.2,4.1,3.2,4.1V0H0z"/>
</svg>
